<?xml version="1.0" encoding="UTF-8" standalone="no"?>
<!-- Created with Inkscape (http://www.inkscape.org/) -->

<svg
   xmlns:dc="http://purl.org/dc/elements/1.1/"
   xmlns:cc="http://creativecommons.org/ns#"
   xmlns:rdf="http://www.w3.org/1999/02/22-rdf-syntax-ns#"
   xmlns:svg="http://www.w3.org/2000/svg"
   xmlns="http://www.w3.org/2000/svg"
   version="1.1"
   width="500"
   height="500"
   id="svg3015">
  <defs
     id="defs3017" />
  <metadata
     id="metadata3020">
    <rdf:RDF>
      <cc:Work
         rdf:about="">
        <dc:format>image/svg+xml</dc:format>
        <dc:type
           rdf:resource="http://purl.org/dc/dcmitype/StillImage" />
        <dc:title></dc:title>
      </cc:Work>
    </rdf:RDF>
  </metadata>
  <g
     id="layer1">
    <g
       transform="matrix(0.7575,0,0,0.7575,-21.52,-138)"
       id="g2992">
      <path
         d="m 41.59,512.2 c 0,-175 141.91,-316.8 316.91,-316.8 175,0 316.8,141.8 316.8,316.8 0,175 -141.8,316.9 -316.8,316.9 -175,0 -316.91,-141.9 -316.91,-316.9 z"
         id="path2945"
         style="fill:#006b2d;fill-opacity:1;fill-rule:nonzero;stroke:none" />
      <path
         d="m 55.34,512.2 c 0,-167.4 135.76,-303.1 303.16,-303.1 167.4,0 303.1,135.7 303.1,303.1 0,167.4 -135.7,303.2 -303.1,303.2 C 191.1,815.4 55.34,679.6 55.34,512.2 z m 89.96,0 c 0,-117.7 95.5,-213.1 213.2,-213.1 117.7,0 213.1,95.4 213.1,213.1 0,117.7 -95.4,213.2 -213.1,213.2 -117.7,0 -213.2,-95.5 -213.2,-213.2 z"
         id="path2973"
         style="fill:#f08e0b;fill-opacity:1;fill-rule:evenodd;stroke:none" />
      <path
         d="m 598.4,542.2 -4,24 48.9,11.6 -3.4,14.4 -49.1,-12.2 c -1.6,7 -4.2,14.4 -7.7,22.2 l -12.3,-4.6 c 6.4,-16.9 11.1,-36 13.6,-53.7 -0.7,0.2 -1.4,0.5 -2,0.8 -5.5,2.7 -50.6,21 -58.6,24.1 -8.1,3.1 -20.3,5.3 -27.5,5.3 l -14.2,0 c 0,0 13.8,10.6 20.5,19.8 6.8,9.1 8.1,16.1 10.6,23.2 2.5,7 4.4,12.1 7.3,17.6 3,5.5 8.8,11.3 11.6,14.1 2.8,2.8 6.6,7.7 9.7,11.1 3.1,3.4 6.6,9.9 2.5,14.5 -1.8,2.1 -4.5,3.5 -7.7,4.3 l -2,7.7 c -21.4,-1 -34.6,26.6 -18.4,38.8 16,11 37.8,-1.6 36.6,-23.4 l 15.8,-3.6 c 2.8,35.2 -35.8,58.6 -63,39.2 -18.8,-16.4 -12.9,-46.2 12.5,-60.7 -9.1,-3.1 -22.8,-8.5 -37,-12.3 -17,-4.5 -34.8,-9.1 -34.8,-9.1 0,0 1,15.5 -4.2,35.5 -5.2,20 -13.5,36.6 -16.4,41.1 -0.9,1.5 -2.1,3.1 -3.6,4.5 l 0.7,0 -18,64.6 -19.2,1.6 -13,-23.6 -10,24.8 -18.6,0 -27.4,-67.4 19.2,3 18,49.8 14.8,-38.8 4.4,0 20.4,37.2 12,-50 0.4,0 c -2,-2.6 -3.7,-5.9 -4.4,-8 -1.4,-3.8 -7.1,-13.5 -14.8,-23.5 -7.7,-10 -16.9,-25.6 -16.9,-25.6 0,0 -11.3,10.7 -15.4,14.8 -4,4.1 -10.9,11.5 -14.6,13.2 -3.7,1.7 -8.6,4.4 -12.8,0 -4.3,-4.4 -2.4,-13.7 -5.1,-20.3 -2.7,-6.6 -4.6,-13.6 -5.8,-21.5 -1.1,-7.9 -0.8,-19.6 -0.8,-19.6 0,0 -10.5,9.4 -23.1,11.1 -12.7,1.7 -24.1,1 -35.2,6.2 -11.2,5.2 -16.6,9.9 -20,12.7 -3.4,2.8 -10.9,8.3 -18.3,1.4 -7.5,-6.9 -3.4,-15.1 -0.9,-19.1 2.6,-4.1 8.5,-14.4 12,-26.4 3.5,-12 5,-22.5 12.4,-33.4 7.3,-10.8 15.6,-18 15.6,-18 0,0 -30.8,2.1 -51.4,-3.9 -20.6,-6.1 -26.9,-12.3 -40.6,-20 -13.6,-7.8 -28.4,-14.7 -35.7,-17.2 -7.4,-2.6 -14.7,-2.8 -18.2,-3.1 -3.5,-0.3 -8,-2.3 -7.7,-8.3 0.2,-6.1 2.6,-13.5 15.9,-16.6 13.2,-3.1 38.7,-4.8 50.8,-13.4 12.1,-8.6 22.7,-16 33.3,-20.3 10.5,-4.4 18.5,-3.5 18.5,-3.5 0,0 -12.2,-23 -20.5,-28.5 -8.3,-5.5 -21.1,-6 -19.5,-16.6 1.7,-10.6 8.5,-14.9 14,-17.5 5.5,-2.5 23.1,-7.3 39.4,-3.6 16.4,3.6 27.8,10 27.8,10 0,0 -8.1,-21.3 -8.3,-25.5 -0.3,-4.2 -2.6,-19.2 -3.1,-22.3 -0.6,-3.1 -12.1,-38.6 -12.1,-47.4 0,-8.9 0.9,-11.4 5.7,-13.4 4.8,-2 11.4,-2.1 18.6,5.9 7.2,8 15.2,19.4 30.3,25.8 15.1,6.3 16.1,4.5 29.2,12.8 13.1,8.3 17.3,18.9 17.3,18.9 0,0 9.3,-18.3 21.5,-31.2 12.3,-12.8 25.1,-18.1 32,-24.5 6.9,-6.3 15.9,-15.3 21.7,-21.1 5.8,-5.8 9.6,-7.7 12.5,-6.1 3,1.7 2.7,10.8 4.7,14 1.9,3.2 6.9,6.3 8.8,7.7 2,1.4 7.4,7.8 5.4,18.1 -2,10.2 -5.9,12.3 -5.6,28 0.2,15.6 1.2,25.6 -0.9,35.1 -2.1,9.4 -3.2,15.5 -3.2,15.5 0,0 8.6,-5.8 17.4,-7.8 8.9,-2 33.7,-2.7 43.7,-4.2 10,-1.6 33.1,-7.5 41.7,-8.9 8.6,-1.4 17.9,-2.4 20.7,3.1 2.8,5.5 0.6,17.3 -4.9,22 -5.5,4.6 -20,14.3 -28,32.5 -6.7,15.1 -22.6,33.3 -22.6,33.3 0,0 20.9,3.2 30.6,8 9.7,4.8 16.9,10.3 29.1,14.2 12.3,4 32.6,8.8 42.3,13.4 9.7,4.6 15.5,11 15.2,14.9 -0.3,4 -5.2,9.7 -16.6,11.4 -3.1,0.5 -6,0.7 -8.5,0.9 z m -6,147.4 -52,-38.2 7.1,-9.8 21.1,14.6 15.4,-25.5 -23.4,-11.6 5.4,-11.3 59.1,26.5 -6.7,12.6 -21.3,-10.2 -16.9,27.1 20.8,14.5 -8.6,11.3 z m -477.1,-118.9 11.1,-2.3 c 2.3,9.8 5.4,20 8.1,28.1 0.8,3.1 0.2,5.6 -2,7.3 -3.3,1.5 -6.1,0 -8.4,-4.5 -2.9,-7 -6.2,-17.4 -8.8,-28.6 z m -25.09,5.5 13.19,-2.7 c 2.6,11.7 5.6,22.3 8.8,31.9 1,3.8 0.2,6.7 -2.4,8.7 -3.9,1.8 -7.2,0.1 -10.03,-5.2 -3.35,-8.4 -6.54,-19.3 -9.56,-32.7 z M 74.69,565 l 61.51,-12.8 12.1,44.3 c 1.9,7.5 -0.3,13.5 -6.6,17.9 -6.4,2.8 -12.7,1.2 -18.1,-3.6 -0.3,8.7 -4.1,15.2 -12.4,18.1 C 101.9,630.7 93.21,627 89.13,617.4 81.63,599.1 77.23,584.1 74.69,565 z M 309.2,753 c -3.7,-14.7 -12.8,-24.6 -27.2,-29.6 -14.2,-3.2 -26.4,-1.5 -36.6,5.2 -8.8,6.5 -13.4,16 -11.4,32.4 1.2,7.8 8.1,16.1 16.2,21.8 11.4,7.1 23.6,9.3 36.6,6.8 11,-4 18.7,-12.2 22.8,-23 C 296,762 283.1,757.2 271.2,751 l -5,10 c 5.9,3.6 12.8,6.9 20.6,9.8 -6.4,7.4 -16,7.6 -28.8,0.6 -6.3,-4.5 -9.6,-10.9 -9.8,-19.2 1.5,-9.8 7,-15.5 16.6,-17 15.1,-1.4 24.5,4.4 28.2,17.2 l 16.2,0.6 z m -112.9,-82.3 35.3,31.1 c 5.2,5.9 6.1,16.2 0.6,24.1 -5.4,6.5 -13.4,8.1 -24,4.8 l -0.1,29.3 -14.2,-9.3 0.5,-27 -17.1,-15 -16.6,16.5 -10.9,-11.2 46.5,-43.3 z m -9.7,27.9 9.5,-9.6 c 7.4,6.8 14.8,12.7 21.6,17.9 2.5,2.2 3.9,5.9 2.8,8.5 -1.9,3.1 -7.6,3.4 -12,1 -6.3,-4.2 -13.5,-9.9 -21.9,-17.8 z m 328,61.6 -15,9.6 -8,-5.8 c -14.1,7.4 -29.6,13.9 -46.6,19.4 l -2.2,10.2 -16.8,3.8 21.2,-73.8 67.4,36.6 z m -36.2,-3.4 -22.8,-12.4 -6.6,24.8 c 10.8,-3.4 20.6,-7.5 29.4,-12.4 z M 101.7,646.4 158,618 c 8.3,14.8 18,29 29.2,42.7 l -10.3,8.1 C 168.4,658.5 160.4,647.7 153,636.3 l -9.4,5.9 c 6.5,10.8 14.6,22.1 24.1,33.8 l -10.2,8.1 c -9.6,-12 -18.2,-24.2 -25.6,-36.6 l -10.6,6.3 c 7.5,13.1 16.1,25.8 25.9,38 l -10.1,8.5 c -14,-16.5 -25.8,-34.5 -35.4,-53.9 z"
         id="path2997"
         style="fill:#ffffff;fill-opacity:1;fill-rule:evenodd;stroke:none" />
      <path
         d="m 439.8,463.5 c 0,0 5.7,-4.5 12.7,-9.5 7.1,-5 16.3,-9.4 25,-13.3 8.8,-3.9 34.1,-16 38.2,-17.8 4.4,-2.1 4.5,-3 5.4,-2.1 1,1 -0.4,2.2 -3.4,6.7 -3,4.6 -4.7,7.2 -11.6,18 -6.8,10.8 -13.9,18 -13.9,18 l 0.4,0 0,7.2 c 0,0 12,-13.6 18.2,-23 6.3,-9.4 8,-16.2 13.8,-23.9 5.7,-7.7 21.2,-20.9 22.8,-22.5 1.5,-1.6 2,-2.8 1.1,-3.6 -1,-0.8 -2.4,-0.5 -3.8,0.5 -1.4,0.9 -4.4,3.1 -12.6,9.5 -8.3,6.4 -13.8,8.8 -30.2,16.1 -16.4,7.3 -31.1,13 -43.3,19.8 -12.2,6.9 -27.1,19.9 -27.1,19.9 l 8.3,0 z m 54.6,50 c 0.2,-2.4 -1.8,-2.1 -1.8,-2.1 l 0,3.7 c 0,0 1.7,0.7 1.8,-1.6 z m 2.5,-5.8 c 3,0.2 4.9,-0.6 5,-1.4 0.2,-0.8 -3.3,-1.1 -5,-1.3 -1.7,-0.1 -4.3,-0.6 -4.3,-0.6 l 0,2.7 c 0,0 1.3,0.4 4.3,0.6 z m 4.5,-35.6 c 4.3,-4.4 7.2,-8.3 11,-14.4 3.7,-6.1 6.2,-11.2 12.3,-21.4 6.1,-10.2 13.3,-16.9 19.4,-23.1 6.1,-6.3 8.9,-10.5 7.7,-11.1 -1.3,-0.6 -4.1,3.4 -10.2,9 -6.1,5.7 -9.5,9.7 -15.6,17.2 -6.1,7.5 -9.6,17.5 -17.5,28.5 -8,10.9 -15.9,17.7 -15.9,17.7 l 0,4.7 c 0,0 5.2,-3.3 8.8,-7.1 z m -16.8,-10.3 c -1.3,-0.7 -2.6,1.7 -2.6,1.7 l 2.8,0 c 0,0 1,-1.1 -0.2,-1.7 z m -13.8,-0.2 c -1.4,-0.5 -2.7,1.9 -2.7,1.9 l 3,0 c 0,0 1.1,-1.4 -0.3,-1.9 z m -35.9,-7 c 4.4,-3.3 12.5,-9.2 25.9,-16.3 13.5,-7 26.9,-12.6 41.7,-18.7 14.9,-6.1 30,-16.9 32.2,-18 2.2,-1.1 3.1,-2 2.4,-3.6 -0.7,-1.4 -2.1,-0.9 -6.6,-0.1 -4.5,0.7 -5,3.9 -5,5.3 0,1.4 -3.9,3.3 -14.8,9.2 -11,5.9 -16.4,6.4 -30.2,12.5 -13.7,6.1 -26.6,11.9 -40.3,21.6 -13.8,9.6 -21.6,17 -21.6,17 l 6.3,0 c 0,0 5.6,-5.6 10,-8.9 z m -22.1,6.5 c 1,-1.2 1.3,-2 0.4,-2.6 -1,-0.6 -2.2,0.3 -3.3,1.9 -1.1,1.5 -2.1,3.1 -2.1,3.1 l 3.3,0 c 0,0 0.8,-1.1 1.7,-2.4 z m -95.6,-91.8 c -4.2,-3.2 -13.6,-7.8 -17.5,-10 -3.9,-2.2 -11.9,-6.4 -17.3,-10.2 -5.5,-3.7 -12.4,-9.6 -12.8,-10 -0.3,-0.3 -1,-0.9 -1.3,-0.7 -0.3,0.3 0,0.7 0,0.7 0,0 7.2,7.5 10,9.7 2.8,2.2 11.4,7.8 20.2,12.3 6.8,3.6 9.3,4.9 15.1,8.8 5.8,3.9 11,8.9 11,8.9 l 3.2,0 c 0,0 -6.4,-6.4 -10.6,-9.5 z m -7,52.5 0,-9 c 0,0 -13.9,-11 -23.3,-26.4 -9.4,-15.4 -19.1,-38.5 -23,-45.1 -3.9,-6.6 -13.7,-18.2 -13.7,-18.2 0,0 11,17.3 14.9,27.9 3.9,10.6 12.8,30 17.3,37.9 4.5,7.9 15,24.1 19,27.2 4,3.1 8.8,5.7 8.8,5.7 z m 0,6.6 0,-3.2 c 0,0 -5.6,-0.6 -12.4,-7.3 -8.7,-8.8 -21.2,-27.9 -21.2,-27.9 0,0 -0.2,-0.3 -0.6,0.1 -0.3,0.3 -0.2,0.5 0,0.8 0.2,0.4 6.8,13.2 10.1,17.4 3.3,4.2 9.9,12.8 14.2,16.1 4.4,3.3 9.9,4 9.9,4 z m -84.7,128 0,-2.5 c 0,0 -1.9,0.4 -1.7,1.6 0.1,1.3 1.7,0.9 1.7,0.9 z m -1.4,6.8 c 2,1.7 2.7,-2.1 2.7,-2.1 l -1.3,0 0,-0.9 c 0,0 -3.4,1.3 -1.4,3 z m 71.6,30.8 c -10.4,10 -19.1,14.8 -32.1,24 -12.9,9.2 -17.2,16 -20.1,19.7 -3,3.8 -4.1,6.6 -3.2,7.2 1,0.6 2.4,-2.4 5,-5.5 2.7,-3.1 6.3,-8.1 15.7,-15 9.3,-6.9 21.4,-15.1 27.8,-20.1 6.4,-5 11.9,-10.8 14.7,-14.6 2.8,-3.7 6.8,-8 6.8,-8 l 0.1,-7.9 c 0,0 -4.4,10.2 -14.7,20.2 z m 12.4,21.8 c 0.2,1.4 2.2,0.3 2.2,0.3 l 0,-2.2 c 0,0 -2.5,0.6 -2.2,1.9 z m -10.3,16.1 c -5.4,3.8 -12.1,5 -17.3,6.1 -5.2,1.1 -9.7,3.6 -9.2,4.4 0.5,0.8 5,-0.8 10.3,-1.9 5.3,-1.1 10,-0.1 16.1,-4 6.1,-4 12.5,-10 12.5,-10 l 0,-4.8 c 0,0 -6.9,6.4 -12.4,10.2 z m 55.7,18.6 c 1.5,0.2 1.5,-3.7 1.5,-3.7 l -2.2,0 c 0,0 -0.8,3.6 0.7,3.7 z m 7.2,1.2 c 1.9,0.3 2.1,-4.9 2.1,-4.9 l -2.4,0 c 0,0 -1.7,4.6 0.3,4.9 z M 398,650 c 0.3,1.7 0.5,4.1 1.9,4.1 1.4,0 1.7,-2 1.7,-3.6 0,-1.5 -0.1,-3.7 -0.1,-3.7 l -3.8,0 c 0,0 0,1.4 0.3,3.2 z m 9.1,20.2 c 2.3,16.1 3.9,45.3 4,49.4 0.2,4 -0.4,9.5 0.8,9.7 1.3,0.1 1.4,-1 1.9,-8.8 0.5,-7.8 -0.2,-23 -1.1,-39.2 -0.9,-16.3 -4.9,-35.8 -4.9,-35.8 l 0,1.3 -4.6,0 c 0,0 1.5,7.3 3.9,23.4 z m 26.7,-71.6 c 13.1,8.6 28.1,22.9 31.9,26.4 3.7,3.6 0.7,2.7 -0.5,2.5 -1.3,-0.1 -2.5,-0.4 -2.5,0.5 0,1 6.9,5.3 14.1,10 7.1,4.7 15.9,13.3 15.9,13.3 0,0 -10.6,-5.3 -15.6,-7.2 -5,-1.9 -8.9,-2.3 -9.7,-1.2 -0.8,1.1 0.3,1.2 1.9,1.7 1.5,0.4 8.4,4.4 12.9,7 4.6,2.7 23.3,11.9 31,15.6 7.6,3.8 14.8,5 16.2,2.8 1.4,-2.1 0,-2.6 -9.7,-8.5 -9.5,-5.9 -19.5,-13.5 -39.7,-32.1 -20.1,-18.6 -40.2,-31.7 -51.8,-39.2 -11.5,-7.5 -20.4,-10.3 -20.4,-10.3 l 0,4.2 c 0,0 7.9,2.7 26,14.5 z m -24.3,-22.8 c 1.7,0.5 3.5,0.7 3.5,-0.1 0,-0.8 -1.1,-1 -2.5,-1.7 -1.4,-0.8 -2.7,-1.1 -2.7,-1.1 l 0,2.3 c 0,0 0.1,0 1.7,0.6 z m 5.2,-161.1 c 4.4,-5.4 7.5,-13.9 11.7,-23.7 4.3,-9.9 6.8,-36.7 8,-43.9 1.3,-7.2 3.4,-20.8 3.5,-21.1 0,-0.3 0.2,-1.1 -0.6,-1.3 -0.9,-0.1 -1,1 -1,1 0,0 -1.9,8.9 -3.9,20.6 -1.9,10.7 -5.6,28.7 -11.3,44.4 -3.8,10.7 -13.4,22.7 -13.4,22.7 l 0.1,9 c 0,0 2.5,-2.2 6.9,-7.7 z m -4.7,201 c 1,-1.6 -2.2,-3.3 -2.2,-3.3 l 0,4.2 c 0,0 1.3,0.6 2.2,-0.9 z m -108.4,-155 c 0,-1.1 0.8,-1.9 1.9,-1.9 1,0 1.8,0.8 1.8,1.9 0,1 -0.8,1.8 -1.8,1.8 -1.1,0 -1.9,-0.8 -1.9,-1.8 z m -7.5,-1.9 c 0,-1 0.8,-1.9 1.9,-1.9 1,0 1.8,0.9 1.8,1.9 0,1 -0.8,1.9 -1.8,1.9 -1.1,0 -1.9,-0.9 -1.9,-1.9 z m -7.2,-3.1 c 0,-1.1 0.8,-1.9 1.9,-1.9 1,0 1.9,0.8 1.9,1.9 0,1 -0.9,1.8 -1.9,1.8 -1.1,0 -1.9,-0.8 -1.9,-1.8 z m -9.4,-5 c 0,-0.7 0.6,-1.3 1.3,-1.3 0.7,0 1.2,0.6 1.2,1.3 0,0.7 -0.5,1.2 -1.2,1.2 -0.7,0 -1.3,-0.5 -1.3,-1.2 z m -10.9,-6.9 c 0,-0.9 0.7,-1.6 1.6,-1.6 0.8,0 1.5,0.7 1.5,1.6 0,0.9 -0.7,1.6 -1.5,1.6 -0.9,0 -1.6,-0.7 -1.6,-1.6 z m -9.1,-5.6 c 0,-0.9 0.7,-1.6 1.6,-1.6 0.9,0 1.6,0.7 1.6,1.6 0,0.8 -0.7,1.5 -1.6,1.5 -0.9,0 -1.6,-0.7 -1.6,-1.5 z m -20.9,-9.6 c 0,-0.6 0.7,-1.1 1.6,-1.1 0.8,0 1.5,0.5 1.5,1.1 0,0.6 -0.7,1.1 -1.5,1.1 -0.9,0 -1.6,-0.5 -1.6,-1.1 z m -5.3,-2 c 0,-0.5 0.6,-0.9 1.4,-0.9 0.8,0 1.4,0.4 1.4,0.9 0,0.5 -0.6,0.9 -1.4,0.9 -0.8,0 -1.4,-0.4 -1.4,-0.9 z m -7.5,-1.1 c 0,-0.4 0.5,-0.8 1.2,-0.8 0.7,0 1.3,0.4 1.3,0.8 0,0.4 -0.6,0.8 -1.3,0.8 -0.7,0 -1.2,-0.4 -1.2,-0.8 z m -7.8,-0.3 c 0,-0.4 0.9,-0.8 2,-0.8 1.1,0 2,0.4 2,0.8 0,0.4 -0.9,0.8 -2,0.8 -1.1,0 -2,-0.4 -2,-0.8 z m -7.6,19.8 c 0.4,-0.8 2.2,-0.9 4.2,-0.1 1.9,0.7 3.1,2.1 2.8,3 -0.4,0.8 -2.2,0.9 -4.1,0.1 -2,-0.7 -3.2,-2.1 -2.9,-3 z m 14.2,30.3 c 0,0 -12.2,-23 -20.5,-28.5 -8.3,-5.5 -21.1,-6 -19.5,-16.6 1.7,-10.6 8.5,-14.9 14,-17.5 5.5,-2.5 23.1,-7.3 39.4,-3.6 16.4,3.6 27.8,10 27.8,10 0,0 -8.1,-21.3 -8.3,-25.5 -0.3,-4.2 -2.6,-19.2 -3.1,-22.3 -0.6,-3.1 -12.1,-38.6 -12.1,-47.4 0,-8.9 0.9,-11.4 5.7,-13.4 4.8,-2 11.4,-2.1 18.6,5.9 7.2,8 15.2,19.4 30.3,25.8 15.1,6.3 16.1,4.5 29.2,12.8 13.1,8.3 17.3,18.9 17.3,18.9 0,0 9.3,-18.3 21.5,-31.2 12.3,-12.8 25.1,-18.1 32,-24.5 6.9,-6.3 15.9,-15.3 21.7,-21.1 5.8,-5.8 9.6,-7.7 12.5,-6.1 3,1.7 2.7,10.8 4.7,14 1.9,3.2 6.9,6.3 8.8,7.7 2,1.4 7.4,7.8 5.4,18.1 -2,10.2 -5.9,12.3 -5.6,28 0.2,15.6 1.2,25.6 -0.9,35.1 -2.1,9.4 -3.2,15.5 -3.2,15.5 0,0 8.6,-5.8 17.4,-7.8 8.9,-2 33.7,-2.7 43.7,-4.2 10,-1.6 33.1,-7.5 41.7,-8.9 8.6,-1.4 17.9,-2.4 20.7,3.1 2.8,5.5 0.6,17.3 -4.9,22 -5.5,4.6 -20,14.3 -28,32.5 -6.7,15.1 -22.6,33.3 -22.6,33.3 0,0 20.9,3.2 30.6,8 9.7,4.8 16.9,10.3 29.1,14.2 12.3,4 32.6,8.8 42.3,13.4 9.7,4.6 15.5,11 15.2,14.9 -0.3,4 -5.2,9.7 -16.6,11.4 -11.4,1.7 -19.1,0.7 -24.5,3.4 -5.5,2.7 -50.6,21 -58.6,24.1 -8.1,3.1 -20.3,5.3 -27.5,5.3 l -14.2,0 c 0,0 13.8,10.6 20.5,19.8 6.8,9.1 8.1,16.1 10.6,23.2 2.5,7 4.4,12.1 7.3,17.6 3,5.5 8.8,11.3 11.6,14.1 2.8,2.8 6.6,7.7 9.7,11.1 3.1,3.4 6.6,9.9 2.5,14.5 -4,4.7 -12.8,6.2 -21.4,3.8 -8.6,-2.4 -24.7,-9.3 -41.8,-13.8 -17,-4.5 -34.8,-9.1 -34.8,-9.1 0,0 1,15.5 -4.2,35.5 -5.2,20 -13.5,36.6 -16.4,41.1 -2.8,4.5 -8.4,9.7 -13.6,9.7 -5.2,0 -9.3,-8.2 -10.7,-12 -1.4,-3.8 -7.1,-13.5 -14.8,-23.5 -7.7,-10 -16.9,-25.6 -16.9,-25.6 0,0 -11.3,10.7 -15.4,14.8 -4,4.1 -10.9,11.5 -14.6,13.2 -3.7,1.7 -8.6,4.4 -12.8,0 -4.3,-4.4 -2.4,-13.7 -5.1,-20.3 -2.7,-6.6 -4.6,-13.6 -5.8,-21.5 -1.1,-7.9 -0.8,-19.6 -0.8,-19.6 0,0 -10.5,9.4 -23.1,11.1 -12.7,1.7 -24.1,1 -35.2,6.2 -11.2,5.2 -16.6,9.9 -20,12.7 -3.4,2.8 -10.9,8.3 -18.3,1.4 -7.5,-6.9 -3.4,-15.1 -0.9,-19.1 2.6,-4.1 8.5,-14.4 12,-26.4 3.5,-12 5,-22.5 12.4,-33.4 7.3,-10.8 15.6,-18 15.6,-18 0,0 -30.8,2.1 -51.4,-3.9 -20.6,-6.1 -26.9,-12.3 -40.6,-20 -13.6,-7.8 -28.4,-14.7 -35.7,-17.2 -7.4,-2.6 -14.7,-2.8 -18.2,-3.1 -3.5,-0.3 -8,-2.3 -7.7,-8.3 0.2,-6.1 2.6,-13.5 15.9,-16.6 13.2,-3.1 38.7,-4.8 50.8,-13.4 12.1,-8.6 22.7,-16 33.3,-20.3 10.5,-4.4 18.5,-3.5 18.5,-3.5 z m 147.8,171.5 -4.3,0 c -0.5,6.8 -1.9,20.8 -5.7,27.8 -5,9.4 -13.9,19.6 -17.4,22.6 -3.4,2.9 -6.7,8.3 -7.3,9.4 -0.6,1.2 -6.1,3.3 -7.9,-1.7 -1.8,-5.1 -1.5,-12.2 -2.7,-16.5 -1.2,-4.4 -5.8,-20.9 -5.8,-28.6 0,-4 0.8,-9.1 1.5,-13 l -10.6,0 0,-1.7 c -1.8,1.8 -4.4,4.1 -6.9,4.4 -4.3,0.6 -11.2,0.3 -11.2,0.3 0,0 5,-1.1 11.5,-5.8 3,-2.2 5.1,-4.2 6.6,-5.7 l 0,-5.1 c -3.3,3.2 -8.6,7.4 -14.8,9.3 -10.6,3.3 -25,3.8 -32.4,6.7 -7.3,3 -22.3,13 -22.3,13 0,0 2.7,-14.4 19.4,-28.2 16.8,-13.9 27.3,-18.6 34.1,-23.9 4.3,-3.3 11.4,-10.9 16.1,-16.1 l 0,-6.8 c -3.1,4.1 -9,11.5 -14.3,15.6 -7.6,5.8 -24.1,16.1 -26.7,18.5 -2.7,2.4 -19.2,15.6 -28.6,26.2 -9.4,10.6 -16.5,21.4 -15,24.1 1.5,2.7 8.2,1.8 8.2,1.8 0,0 -7.8,9.7 -13.5,1.5 -5.6,-8.3 5.7,-19.2 10.3,-34.2 4.7,-14.9 10,-32.1 16.5,-40.3 11.8,-15 17.6,-20.3 17.6,-20.3 0,0 14.2,-4.1 24.8,-10.6 6.4,-3.9 10.2,-6.7 12.2,-8.4 l -7.2,0 c -2.3,2.2 -7.1,6.5 -10.7,8.4 -4.9,2.7 -16.7,5.4 -16.7,5.4 0,0 11.4,-4.5 15.8,-7.7 2.8,-2 5,-4.5 6.2,-6.1 l -8.4,0 c -2.1,2.5 -6.3,6.9 -12.7,9.9 -9.4,4.5 -15.4,3 -15.4,3 0,0 8.3,-2.8 14.8,-6.8 3.8,-2.4 6.1,-4.6 7.3,-6.1 l -9.3,0 c -1.1,1.6 -3.2,4.1 -7.4,6.4 -6.8,3.5 -14.8,3.2 -14.8,3.2 0,0 7.4,-2.9 12.4,-5.8 2.5,-1.5 3.7,-2.8 4.3,-3.8 l -9.2,0 c -4.9,3.1 -15.5,8.8 -25.4,9 -13.5,0.3 -25.5,-4.9 -25.5,-4.9 l 0,-2.1 c 0,0 -9.8,-0.3 -14.8,-2.4 -5,-2.1 -5.8,-3.5 -5.8,-3.5 0,0 3.4,-0.6 3.4,-1.7 0,-1.2 -1.4,-1.5 -3.4,-1.8 -2.1,-0.3 -2.9,-0.3 -8.3,-2.7 -5.3,-2.4 -10,-5.2 -10,-5.2 0,0 6.6,1.4 9.4,1.7 2.9,0.3 9.7,0.8 9.7,0.8 0,0 1.8,-1.4 -2,-2.5 -3.9,-1.2 -16.5,-4.5 -20.9,-5.7 -4.5,-1.2 -10.9,-4 -10.9,-4 0,0 10.7,1.4 15,1.4 4.4,0 9.4,-0.6 11.4,-1.2 2.1,-0.5 2.3,-2.3 -0.3,-2.3 -2.5,0 -10.8,0.3 -13.7,-0.3 -3,-0.6 -10,-3 -10,-3 0,0 12.9,0.9 22.6,-0.3 9.7,-1.2 24.5,-8.8 38.3,-8.2 8,0.3 13.1,1.4 15.9,2.2 l 0,-5 c -3.2,-1 -8,-2.1 -13.4,-1.9 -9.7,0.3 -34,7.1 -45.5,8.3 -11.5,1.1 -28.5,-4.8 -38.8,-5.4 -10.3,-0.6 -18.2,4.8 -18.2,4.8 0,0 1.1,-6.6 7,-8 5.8,-1.4 13.8,-2.3 20.6,-3.5 6.7,-1.2 26.7,-5.4 36.1,-11.5 9.4,-6.1 21.7,-16.2 30.9,-19.4 9,-3.1 16.6,-3.9 21.3,-4 l 0,-6.5 c -0.9,-1.3 -1.7,-2.4 -2.2,-3.1 -1.4,-2.3 -5.2,-10 -5.2,-10 l 7.4,5.3 0,-1 1.5,0 c -1.9,-2.2 -3.7,-4.3 -4,-4.9 -0.6,-1.1 -1.1,-3.1 -1.1,-3.1 l 10.7,8 5.4,0 c -3.6,-2.5 -8.5,-5.9 -9.6,-6.9 -1.8,-1.4 -6.5,-7.4 -6.5,-7.4 l 22.7,14.3 6.7,0 c -6,-3.8 -15.9,-10.2 -17.4,-11 -2,-1.2 -18.5,-11.8 -18.5,-11.8 0,0 9.5,0.7 15,3.6 5.6,2.9 15.8,8.7 22.3,13.8 2.4,1.7 4.8,3.7 7,5.4 l 7.4,0 c -4.9,-3.9 -11.8,-9.2 -17.2,-12.8 -9.5,-6.1 -15.1,-10 -15.1,-10 0,0 13.6,3.3 25.3,11.5 5.8,4.1 11.5,8.1 15.7,11.2 l 10,0.1 c -9.9,-7.2 -27.1,-19.2 -39.2,-24.6 -17.9,-7.9 -25.6,-8.2 -37.3,-7.6 -11.8,0.6 -23.3,3.9 -23.3,2.1 0,-1.8 5,-20.6 30.9,-20.3 25.8,0.3 37.3,7.3 49.7,16.1 12.4,8.9 22.7,17.4 30,19.4 5.3,1.5 10.9,2.3 13.6,2.6 l 0,-4.8 c -6.5,-1.4 -23.4,-5.8 -33,-17.8 -12.1,-14.9 -17.6,-32 -24.5,-65.5 -4.3,-21.2 -8.6,-25.9 -10.6,-37.6 -1.1,-6.9 -0.5,-9.2 2.4,-10.6 3,-1.5 7.7,-2.1 12.4,4.9 8.6,13 18.7,18.9 27.3,24.5 11.8,7.6 35.3,18.6 49.1,31.8 1.1,1 2.1,1.9 2.9,2.7 l 9.5,0 c 0.7,-5 3.6,-13.7 13.6,-25.7 20,-24.2 25.6,-20.7 39.7,-33.9 14,-13.1 17.7,-17.9 20.3,-20.3 2.6,-2.3 3.1,-2.9 4.9,-2 1.8,0.9 1.2,10 1.2,13.8 0,3.9 1.5,7.9 1.5,7.9 0,0 -1.5,3.9 -2.7,5.4 -1.2,1.5 -3.5,3.8 -3.5,3.8 0,0 1.4,-9.1 1.4,-12 0,-3 -1.1,-7.2 -2,-7.2 -0.8,0 -1.7,12.8 -3.8,17.7 -2.1,5 -5.9,12.9 -8.2,15.9 -2.4,3 -10.3,11.5 -10.3,11.5 0,0 1.8,-4.2 0.3,-4.8 -1.5,-0.5 -3.3,0.6 -10.6,13.3 -4,6.9 -6.5,13.1 -7.8,16.6 l 9.3,0 c 1.2,-3.6 3.2,-8.7 6.1,-12.2 5,-5.9 15,-18.8 20.3,-25 5.3,-6.1 14.2,-17 16.2,-20.9 2,-3.8 4.2,-9.8 7.7,-3.2 3.4,6.5 4.1,13.5 1.4,25.6 -2.6,12.1 -4.1,8.6 -4.7,12.4 -0.6,3.7 -0.3,18.1 -1.5,22.3 -1.2,4.1 -9,25.6 -13.5,32.6 -2.7,4.3 -8.8,11.9 -13.2,17.1 l 0,15.7 c 4,-5.4 12.1,-13.9 28.5,-23.7 27.9,-16.7 41.1,-14.9 65.6,-18.2 24.4,-3.2 34.9,-6.4 40.5,-7.6 5.7,-1.2 10.3,-1.3 12.1,3.8 1.8,5 -0.8,11.8 -6.4,16.5 -5.7,4.6 -13.6,12.6 -20,25.2 -6.5,12.7 -15.1,26 -21.2,32.4 -3.7,3.9 -10,8.9 -14.3,12.4 l 0,6.1 c 4.1,-2 10.6,-4.1 19.3,-3.5 16.2,1.2 25.7,9.7 38.5,15.6 12.9,5.9 44.8,12 50.6,14.4 5.9,2.3 5.4,4.7 8.6,6.5 3.1,1.8 8.8,5 7.6,7 -1.2,2.1 -6.8,3.9 -6.8,3.9 0,0 5.4,-1.8 0.6,-4.5 -4.7,-2.6 -12,-6.7 -30.3,-4.9 -18.3,1.7 -39.4,10 -57.1,9.7 -17.6,-0.3 -21.4,-3.9 -26.1,-3.9 l -4.8,0 -0.1,3.2 c 4.3,1.5 13,4.2 22.2,4.5 13,0.3 25.1,-0.3 36.5,-2.6 11.4,-2.4 22.9,-6.3 30.6,-6.6 7.7,-0.3 12.9,1.2 12.9,1.2 0,0 -13.8,2.2 -25.5,6.5 -11.8,4.4 -26.6,13.5 -26.6,13.5 0,0 8.9,-1.5 13.3,-2.9 4.4,-1.4 11.5,-3.8 11.5,-3.8 0,0 -17.4,10.8 -35.1,16.4 -17.6,5.7 -31.1,10 -45.5,9.4 -14.5,-0.6 -12.4,-3.7 -12.4,-3.7 0,0 13.3,1.1 26.5,-0.6 13.2,-1.8 21.4,-7.1 21.4,-7.1 0,0 -11.4,2.6 -23.1,2.3 -1.7,0 -4,-0.3 -6.7,-0.7 l 0,1.7 L 444,561 c 3.2,2.5 9,6.9 14.7,9.7 8.2,4.2 18.2,7.1 30.3,18.8 12,11.8 13.1,16.6 16.7,25.7 3.6,9.1 10.6,23.7 10.6,23.7 l -8.5,-5.5 c 0,0 -2.2,-26.9 -24.8,-43.3 -32,-23.2 -42.3,-17 -42.3,-17 0,0 15.9,2.4 36.5,18.8 20.6,16.5 22.7,32.7 22.7,32.7 0,0 -15.4,-17.1 -23.6,-23.6 -8.2,-6.4 -11.9,-10 -14.4,-11.2 -2.6,-1.2 -3.5,-1.4 -4.7,-0.9 -1.2,0.6 -1.2,2.1 0.3,3.3 1.5,1.2 7.7,3.9 12.9,9.4 5.3,5.6 10.9,13 10.9,13 -4.1,-2.1 -7.2,-2.8 -6.5,-1.5 0,0 23.6,23.5 31.5,29.7 7.9,6.1 15.8,9.8 20.3,13.3 4.4,3.4 8.2,6.5 9.4,10 1.2,3.4 2.7,12.6 -9.7,9.1 -12.4,-3.6 -18.5,-8.9 -27.6,-11.5 -9.1,-2.7 -36.8,-8.5 -46.6,-12.7 -9.7,-4.1 -20.5,-11.2 -33.7,-21.2 -4.7,-3.5 -8.1,-6 -10.6,-7.9 l 0,6.3 9.1,7.6 1.2,4 4,-0.6 9.5,9.4 c 0,0 4.6,15.3 0.8,31.5 -3.7,16.2 -6.8,24.1 -10,29.7 -3.1,5.7 -2.8,7.1 -3.7,11.2 -0.9,4.2 -3.2,15.9 -7.7,15.9 -4.4,0 -5.3,-4.5 -7.1,-9.4 -1.8,-5 -6.8,-13.9 -10.6,-18.9 -3.7,-4.9 -16.8,-21.4 -20.3,-34.3 -2.5,-9.5 -2.7,-21.6 -2.6,-27.5 z M 279.7,410.6 c 0.4,-0.7 1.7,-0.7 2.9,0 1.2,0.7 1.8,1.8 1.5,2.5 -0.4,0.6 -1.7,0.6 -2.9,-0.1 -1.2,-0.6 -1.9,-1.8 -1.5,-2.4 z m -5.2,-4.9 c 0,-0.7 0.5,-1.2 1.1,-1.2 0.7,0 1.2,0.5 1.2,1.2 0,0.6 -0.5,1.1 -1.2,1.1 -0.6,0 -1.1,-0.5 -1.1,-1.1 z m -3.7,-6.3 c 0,-1.2 0.6,-2.1 1.3,-2.1 0.7,0 1.3,0.9 1.3,2.1 0,1.2 -0.6,2.2 -1.3,2.2 -0.7,0 -1.3,-1 -1.3,-2.2 z m 2.5,-13.3 c 0,-0.7 0.3,-1.2 0.8,-1.2 0.5,0 0.8,0.5 0.8,1.2 0,0.6 -0.3,1.1 -0.8,1.1 -0.5,0 -0.8,-0.5 -0.8,-1.1 z m -3.4,-7.3 c 0,-0.7 0.3,-1.2 0.7,-1.2 0.4,0 0.7,0.5 0.7,1.2 0,0.6 -0.3,1.1 -0.7,1.1 -0.4,0 -0.7,-0.5 -0.7,-1.1 z m -3.3,-7.2 c 0,-0.5 0.3,-1 0.8,-1 0.4,0 0.8,0.5 0.8,1 0,0.6 -0.4,1 -0.8,1 -0.5,0 -0.8,-0.4 -0.8,-1 z m -4.4,-10.4 c -0.5,-2.1 -0.5,-3.9 0,-4 0.5,-0.1 1.3,1.5 1.9,3.6 0.5,2 0.5,3.8 0,4 -0.5,0.1 -1.4,-1.5 -1.9,-3.6 z m 20.6,-1.3 c 0,-0.4 0.3,-0.7 0.7,-0.7 0.4,0 0.8,0.3 0.8,0.7 0,0.4 -0.4,0.7 -0.8,0.7 -0.4,0 -0.7,-0.3 -0.7,-0.7 z m 3.8,1.8 c 0,-0.4 0.3,-0.8 0.8,-0.8 0.4,0 0.8,0.4 0.8,0.8 0,0.5 -0.4,0.8 -0.8,0.8 -0.5,0 -0.8,-0.3 -0.8,-0.8 z m 4.1,2.6 c 0,-0.6 0.5,-1 1,-1 0.6,0 1,0.4 1,1 0,0.5 -0.4,1 -1,1 -0.5,0 -1,-0.5 -1,-1 z m 4,1.3 c 0,-0.6 0.4,-1 0.9,-1 0.6,0 1,0.4 1,1 0,0.5 -0.4,0.9 -1,0.9 -0.5,0 -0.9,-0.4 -0.9,-0.9 z m 3.9,2.1 c 0,-0.6 0.4,-1 0.9,-1 0.6,0 1,0.4 1,1 0,0.5 -0.4,0.9 -1,0.9 -0.5,0 -0.9,-0.4 -0.9,-0.9 z m 3.8,2.4 c 0,-0.7 0.5,-1.2 1.1,-1.2 0.6,0 1.1,0.5 1.1,1.2 0,0.6 -0.5,1.1 -1.1,1.1 -0.6,0 -1.1,-0.5 -1.1,-1.1 z m 4.6,3.5 c 0,-0.8 0.7,-1.4 1.5,-1.4 0.8,0 1.4,0.6 1.4,1.4 0,0.8 -0.6,1.5 -1.4,1.5 -0.8,0 -1.5,-0.7 -1.5,-1.5 z m 5.4,3.7 c 0,-0.6 0.5,-1.1 1.1,-1.1 0.7,0 1.2,0.5 1.2,1.1 0,0.7 -0.5,1.2 -1.2,1.2 -0.6,0 -1.1,-0.5 -1.1,-1.2 z m 50.9,-2.5 c 0,-0.6 0.5,-1.2 1.2,-1.2 0.7,0 1.2,0.6 1.2,1.2 0,0.7 -0.5,1.3 -1.2,1.3 -0.7,0 -1.2,-0.6 -1.2,-1.3 z m 3.7,-8.4 c 0.6,-1.3 1.5,-2.1 1.9,-1.9 0.5,0.2 0.4,1.4 -0.2,2.7 -0.6,1.2 -1.4,2.1 -1.9,1.8 -0.5,-0.2 -0.4,-1.4 0.2,-2.6 z m 4.5,-6.1 c 0.5,-1.3 1.4,-2.1 1.9,-1.9 0.4,0.2 0.4,1.4 -0.2,2.7 -0.6,1.2 -1.5,2.1 -1.9,1.8 -0.5,-0.2 -0.4,-1.4 0.2,-2.6 z m 4.4,-5.6 c 0,-0.7 0.5,-1.2 1.2,-1.2 0.6,0 1.2,0.5 1.2,1.2 0,0.6 -0.6,1.1 -1.2,1.1 -0.7,0 -1.2,-0.5 -1.2,-1.1 z m 3.7,-4.8 c 0,-0.7 0.6,-1.3 1.3,-1.3 0.7,0 1.3,0.6 1.3,1.3 0,0.7 -0.6,1.3 -1.3,1.3 -0.7,0 -1.3,-0.6 -1.3,-1.3 z m 4.9,-5.1 c 0,-0.5 0.4,-1 1,-1 0.5,0 1,0.5 1,1 0,0.6 -0.5,1 -1,1 -0.6,0 -1,-0.4 -1,-1 z M 406.7,322 c 0,-0.6 0.5,-1.1 1.1,-1.1 0.5,0 1,0.5 1,1.1 0,0.6 -0.5,1.1 -1,1.1 -0.6,0 -1.1,-0.5 -1.1,-1.1 z m -2,5.4 c 0,-0.4 0.3,-0.7 0.7,-0.7 0.4,0 0.7,0.3 0.7,0.7 0,0.4 -0.3,0.8 -0.7,0.8 -0.4,0 -0.7,-0.4 -0.7,-0.8 z m -3.1,4.9 c 0,-0.7 0.6,-1.2 1.3,-1.2 0.7,0 1.2,0.5 1.2,1.2 0,0.7 -0.5,1.3 -1.2,1.3 -0.7,0 -1.3,-0.6 -1.3,-1.3 z m -2.7,6.1 c 0,-0.5 0.5,-0.9 1,-0.9 0.5,0 0.9,0.4 0.9,0.9 0,0.6 -0.4,1 -0.9,1 -0.5,0 -1,-0.4 -1,-1 z m -3,3.8 c 0,-0.8 0.6,-1.4 1.4,-1.4 0.7,0 1.3,0.6 1.3,1.4 0,0.7 -0.6,1.3 -1.3,1.3 -0.8,0 -1.4,-0.6 -1.4,-1.3 z m -2.4,4.9 c 0,-0.7 0.5,-1.2 1.1,-1.2 0.6,0 1.1,0.5 1.1,1.2 0,0.6 -0.5,1.1 -1.1,1.1 -0.6,0 -1.1,-0.5 -1.1,-1.1 z m -3.7,4.7 c 0,-0.7 0.6,-1.3 1.3,-1.3 0.8,0 1.4,0.6 1.4,1.3 0,0.8 -0.6,1.4 -1.4,1.4 -0.7,0 -1.3,-0.6 -1.3,-1.4 z m -3.2,4.2 c 0,-0.6 0.5,-1.2 1.2,-1.2 0.6,0 1.1,0.6 1.1,1.2 0,0.6 -0.5,1.2 -1.1,1.2 -0.7,0 -1.2,-0.6 -1.2,-1.2 z m -3.3,4.4 c 1.2,0.8 0.2,2.8 -0.6,3.7 -0.8,0.8 -3.4,3.4 -4.7,6.3 -1.2,2.9 -3,6.8 -4.4,6.2 -1.5,-0.5 -0.6,-4.4 0.8,-6.5 1.3,-2.2 4,-6.3 5.2,-7.4 1.2,-1.1 2.4,-3.1 3.7,-2.3 z m 30,-37.7 c 1.3,0.1 0.8,3.2 -0.4,6.1 -1.2,2.9 -4,8.6 -6.4,11.9 -2.5,3.4 -3.2,3.7 -4,3 -0.8,-0.6 0.5,-2.4 2,-4.2 1.4,-1.8 4.8,-7.7 5.7,-9.8 0.8,-2.1 1.7,-7.1 3.1,-7 z m 14.1,14.1 c 1.1,0.1 0.8,2.3 0.2,5.5 -0.6,3.2 -1,4.3 -1.5,5.7 -0.4,1.5 -1.1,2.6 -1.8,2.3 -0.8,-0.4 -0.7,-1.4 -0.2,-3.1 0.6,-1.8 1.8,-4.7 1.9,-6.1 0.1,-1.5 0.3,-4.4 1.4,-4.3 z m 141.1,182 c 4,-1.1 6.8,-0.3 7,0.3 0.2,0.6 -4.1,1.4 -5.9,2 -1.9,0.7 -4.9,1 -5.2,-0.3 -0.3,-1.2 0,-0.9 4.1,-2 z m 17.6,0 c 3.8,0.2 6.6,3 -0.1,2.5 -6.7,-0.5 -3.6,-2.7 0.1,-2.5 z m -67.6,34.1 c 0.3,1.8 6.7,-0.4 12,-2.5 5.3,-2.2 12,-6.1 12,-6.1 0,0 -7.6,2.3 -12.2,4.2 -4.5,1.9 -7.9,1.9 -9.6,2.3 -1.8,0.5 -2.5,0.2 -2.2,2.1 z M 429.1,332.2 c 0,-1.1 0.4,-2 0.9,-2 0.5,0 1,0.9 1,2 0,1 -0.5,1.9 -1,1.9 -0.5,0 -0.9,-0.9 -0.9,-1.9 z m -6.4,22.4 c 0,-0.9 0.4,-1.6 0.8,-1.6 0.5,0 0.9,0.7 0.9,1.6 0,0.8 -0.4,1.5 -0.9,1.5 -0.4,0 -0.8,-0.7 -0.8,-1.5 z m -2,5.3 c 0,-1 0.4,-1.7 1,-1.7 0.5,0 1,0.7 1,1.7 0,0.9 -0.5,1.7 -1,1.7 -0.6,0 -1,-0.8 -1,-1.7 z m -2,4.9 c 0.2,-1 0.9,-1.7 1.6,-1.6 0.8,0.2 1.2,1.1 1,2.1 -0.3,1 -1,1.7 -1.7,1.6 -0.8,-0.2 -1.2,-1.1 -0.9,-2.1 z m -4.8,-45.7 c 0,-0.6 0.5,-1.1 1.1,-1.1 0.6,0 1.1,0.5 1.1,1.1 0,0.6 -0.5,1.1 -1.1,1.1 -0.6,0 -1.1,-0.5 -1.1,-1.1 z m -14.6,27.6 c 0,-0.7 0.5,-1.2 1.1,-1.2 0.7,0 1.2,0.5 1.2,1.2 0,0.6 -0.5,1.2 -1.2,1.2 -0.6,0 -1.1,-0.6 -1.1,-1.2 z m 20.7,74.9 c 1.1,0.9 6.9,-1.9 8.3,-4.1 1.4,-2.1 5.8,-12.8 6.7,-17.1 1,-4.4 2.2,-16.6 1.1,-16.6 -1.1,0 -2.6,8.9 -4.7,14.1 -2,5.1 -6.5,14.5 -8.4,17.8 -1.9,3.3 -4.1,5 -3,5.9 z m -3.7,32.8 c 1,-1.3 2.3,-1.9 2.8,-1.5 0.6,0.5 0.1,1.9 -0.9,3.1 -1.1,1.3 -2.4,1.9 -2.9,1.5 -0.5,-0.5 -0.1,-1.8 1,-3.1 z m 5.4,-5.1 c 1.1,-1.2 2.4,-1.7 2.9,-1.2 0.5,0.4 0,1.7 -1.1,2.9 -1.2,1.1 -2.5,1.7 -2.9,1.2 -0.5,-0.4 0,-1.8 1.1,-2.9 z m 5.6,-4.5 c 1.1,-1.1 2.5,-1.5 2.9,-1 0.5,0.4 -0.1,1.7 -1.3,2.8 -1.1,1.1 -2.5,1.6 -2.9,1.1 -0.5,-0.5 0.1,-1.8 1.3,-2.9 z m 6.4,-4.5 c 1.2,-1.1 2.6,-1.5 3,-1 0.5,0.5 -0.1,1.8 -1.4,2.8 -1.2,1.1 -2.5,1.5 -3,1 -0.4,-0.5 0.2,-1.8 1.4,-2.8 z m 10.9,-5.4 c 0,-0.8 0.6,-1.4 1.4,-1.4 0.7,0 1.4,0.6 1.4,1.4 0,0.8 -0.7,1.4 -1.4,1.4 -0.8,0 -1.4,-0.6 -1.4,-1.4 z m 6.1,-3.2 c 0,-0.7 0.6,-1.3 1.3,-1.3 0.7,0 1.3,0.6 1.3,1.3 0,0.7 -0.6,1.3 -1.3,1.3 -0.7,0 -1.3,-0.6 -1.3,-1.3 z m 5.1,-2.8 c 0,-0.8 0.6,-1.4 1.3,-1.4 0.8,0 1.4,0.6 1.4,1.4 0,0.7 -0.6,1.3 -1.4,1.3 -0.7,0 -1.3,-0.6 -1.3,-1.3 z m 5,-2.3 c 0,-0.6 0.5,-1.1 1.1,-1.1 0.6,0 1.1,0.5 1.1,1.1 0,0.6 -0.5,1.1 -1.1,1.1 -0.6,0 -1.1,-0.5 -1.1,-1.1 z m 7,-3.3 c 0,-0.7 0.6,-1.2 1.3,-1.2 0.7,0 1.2,0.5 1.2,1.2 0,0.7 -0.5,1.3 -1.2,1.3 -0.7,0 -1.3,-0.6 -1.3,-1.3 z m 10.7,-4.3 c 0,-0.6 0.8,-1 1.8,-1 1.1,0 1.9,0.4 1.9,1 0,0.5 -0.8,0.9 -1.9,0.9 -1,0 -1.8,-0.4 -1.8,-0.9 z m 9.8,-3.1 c 0,-0.7 0.4,-1.3 1,-1.3 0.5,0 0.9,0.6 0.9,1.3 0,0.7 -0.4,1.3 -0.9,1.3 -0.6,0 -1,-0.6 -1,-1.3 z M 498,412 c -0.2,-0.5 0.7,-1.4 2,-1.9 1.4,-0.5 2.6,-0.4 2.8,0.2 0.3,0.5 -0.7,1.4 -2,1.9 -1.3,0.5 -2.6,0.4 -2.8,-0.2 z m 16.6,-7 c 0,-0.6 0.4,-1 1,-1 0.5,0 1,0.4 1,1 0,0.5 -0.5,1 -1,1 -0.6,0 -1,-0.5 -1,-1 z m 5,-3.2 c 0,-0.4 0.3,-0.8 0.8,-0.8 0.5,0 0.9,0.4 0.9,0.8 0,0.5 -0.4,0.9 -0.9,0.9 -0.5,0 -0.8,-0.4 -0.8,-0.9 z m -46.9,57.5 c 0,-0.8 0.6,-1.4 1.4,-1.4 0.8,0 1.4,0.6 1.4,1.4 0,0.7 -0.6,1.4 -1.4,1.4 -0.8,0 -1.4,-0.7 -1.4,-1.4 z m 5,-5.1 c 1.1,-1.3 2.3,-2 2.8,-1.6 0.5,0.4 0.1,1.8 -0.9,3.1 -1.1,1.2 -2.3,1.9 -2.8,1.5 -0.5,-0.4 -0.1,-1.7 0.9,-3 z m 8.1,5.4 c 0,-0.8 0.6,-1.4 1.4,-1.4 0.8,0 1.4,0.6 1.4,1.4 0,0.8 -0.6,1.4 -1.4,1.4 -0.8,0 -1.4,-0.6 -1.4,-1.4 z m 5.2,-5.3 c 0,-0.9 0.7,-1.6 1.6,-1.6 0.9,0 1.7,0.7 1.7,1.6 0,0.9 -0.8,1.7 -1.7,1.7 -0.9,0 -1.6,-0.8 -1.6,-1.7 z m 4.8,-4.9 c 0,-0.8 0.6,-1.4 1.4,-1.4 0.8,0 1.4,0.6 1.4,1.4 0,0.8 -0.6,1.4 -1.4,1.4 -0.8,0 -1.4,-0.6 -1.4,-1.4 z m 4.5,-6.2 c 0,-0.7 0.6,-1.3 1.3,-1.3 0.7,0 1.2,0.6 1.2,1.3 0,0.7 -0.5,1.2 -1.2,1.2 -0.7,0 -1.3,-0.5 -1.3,-1.2 z m -6.5,55.1 c 0,-0.6 0.5,-1.1 1.1,-1.1 0.6,0 1.1,0.5 1.1,1.1 0,0.6 -0.5,1.1 -1.1,1.1 -0.6,0 -1.1,-0.5 -1.1,-1.1 z m 3.4,-1.1 c 0,-0.5 0.4,-0.9 0.9,-0.9 0.5,0 0.8,0.4 0.8,0.9 0,0.4 -0.3,0.8 -0.8,0.8 -0.5,0 -0.9,-0.4 -0.9,-0.8 z m 10.6,10.9 c 0,-0.9 0.8,-1.6 1.7,-1.6 0.9,0 1.6,0.7 1.6,1.6 0,0.9 -0.7,1.6 -1.6,1.6 -0.9,0 -1.7,-0.7 -1.7,-1.6 z m 8.8,0.1 c 0,-0.7 0.6,-1.3 1.3,-1.3 0.8,0 1.4,0.6 1.4,1.3 0,0.8 -0.6,1.4 -1.4,1.4 -0.7,0 -1.3,-0.6 -1.3,-1.4 z m 5.9,-0.3 c 0,-0.6 0.6,-1.1 1.2,-1.1 0.7,0 1.2,0.5 1.2,1.1 0,0.7 -0.5,1.2 -1.2,1.2 -0.6,0 -1.2,-0.5 -1.2,-1.2 z m 7.1,-0.4 c 0,-0.5 0.3,-0.9 0.8,-0.9 0.5,0 0.9,0.4 0.9,0.9 0,0.4 -0.4,0.8 -0.9,0.8 -0.5,0 -0.8,-0.4 -0.8,-0.8 z m -31.9,6.6 c 0,-0.9 0.8,-1.7 1.7,-1.7 1,0 1.7,0.8 1.7,1.7 0,1 -0.7,1.7 -1.7,1.7 -0.9,0 -1.7,-0.7 -1.7,-1.7 z m 5.9,0.9 c 0,-0.7 0.7,-1.4 1.4,-1.4 0.8,0 1.4,0.7 1.4,1.4 0,0.8 -0.6,1.5 -1.4,1.5 -0.7,0 -1.4,-0.7 -1.4,-1.5 z m 6.9,0.7 c 0,-0.9 0.7,-1.6 1.6,-1.6 0.8,0 1.5,0.7 1.5,1.6 0,0.8 -0.7,1.5 -1.5,1.5 -0.9,0 -1.6,-0.7 -1.6,-1.5 z m 5.9,0.5 c 0,-0.7 0.6,-1.3 1.4,-1.3 0.7,0 1.3,0.6 1.3,1.3 0,0.8 -0.6,1.3 -1.3,1.3 -0.8,0 -1.4,-0.5 -1.4,-1.3 z m 5.7,0.9 c 0,-0.8 0.6,-1.4 1.4,-1.4 0.7,0 1.4,0.6 1.4,1.4 0,0.8 -0.7,1.4 -1.4,1.4 -0.8,0 -1.4,-0.6 -1.4,-1.4 z m 6.2,-0.1 c 0,-0.7 0.6,-1.3 1.3,-1.3 0.8,0 1.4,0.6 1.4,1.3 0,0.7 -0.6,1.3 -1.4,1.3 -0.7,0 -1.3,-0.6 -1.3,-1.3 z m 5.6,-0.2 c 0,-0.6 0.5,-1.1 1.1,-1.1 0.6,0 1.1,0.5 1.1,1.1 0,0.6 -0.5,1.1 -1.1,1.1 -0.6,0 -1.1,-0.5 -1.1,-1.1 z m 4.9,-0.1 c 0,-0.6 1.3,-1 2.9,-1 1.6,0 2.9,0.4 2.9,1 0,0.5 -1.3,1 -2.9,1 -1.6,0 -2.9,-0.5 -2.9,-1 z m -17.2,4.1 c 0,-0.4 0.6,-0.8 1.2,-0.8 0.7,0 1.3,0.4 1.3,0.8 0,0.5 -0.6,0.8 -1.3,0.8 -0.6,0 -1.2,-0.3 -1.2,-0.8 z m 6.9,5.8 c 0,-0.5 0.7,-0.9 1.6,-0.9 0.9,0 1.7,0.4 1.7,0.9 0,0.5 -0.8,0.9 -1.7,0.9 -0.9,0 -1.6,-0.4 -1.6,-0.9 z m 5.8,-0.3 c 0,-0.5 1.2,-0.9 2.8,-0.9 1.5,0 2.8,0.4 2.8,0.9 0,0.5 -1.3,0.9 -2.8,0.9 -1.6,0 -2.8,-0.4 -2.8,-0.9 z m 8.1,-0.8 c 0,-0.5 0.5,-0.9 1.1,-0.9 0.6,0 1.1,0.4 1.1,0.9 0,0.5 -0.5,1 -1.1,1 -0.6,0 -1.1,-0.5 -1.1,-1 z m -46.9,21 c 0,-0.9 0.9,-1.6 2.1,-1.6 1.2,0 2.1,0.7 2.1,1.6 0,0.8 -0.9,1.5 -2.1,1.5 -1.2,0 -2.1,-0.7 -2.1,-1.5 z m 7,-0.4 c 0,-0.6 1,-1.2 2.1,-1.2 1.2,0 2.2,0.6 2.2,1.2 0,0.7 -1,1.3 -2.2,1.3 -1.1,0 -2.1,-0.6 -2.1,-1.3 z m 7.1,-0.1 c 0,-0.7 0.7,-1.3 1.6,-1.3 0.9,0 1.6,0.6 1.6,1.3 0,0.7 -0.7,1.2 -1.6,1.2 -0.9,0 -1.6,-0.5 -1.6,-1.2 z m 6.1,-0.6 c 0,-0.4 0.9,-0.8 2.1,-0.8 1.3,0 2.2,0.4 2.2,0.8 0,0.5 -0.9,0.9 -2.2,0.9 -1.2,0 -2.1,-0.4 -2.1,-0.9 z m -20.4,8.6 c 0,-0.8 1.7,-1.5 3.8,-1.5 2.1,0 3.7,0.7 3.7,1.5 0,0.7 -1.6,1.4 -3.7,1.4 -2.1,0 -3.8,-0.7 -3.8,-1.4 z m 11.1,0.3 c 0,-0.6 0.7,-1.1 1.4,-1.1 0.8,0 1.5,0.5 1.5,1.1 0,0.7 -0.7,1.2 -1.5,1.2 -0.7,0 -1.4,-0.5 -1.4,-1.2 z m 6.9,-0.7 c 0,-0.6 0.5,-1.1 1.2,-1.1 0.6,0 1.2,0.5 1.2,1.1 0,0.7 -0.6,1.2 -1.2,1.2 -0.7,0 -1.2,-0.5 -1.2,-1.2 z m -86.2,19.3 c 0,-0.7 0.5,-1.3 1.2,-1.3 0.7,0 1.3,0.6 1.3,1.3 0,0.6 -0.6,1.2 -1.3,1.2 -0.7,0 -1.2,-0.6 -1.2,-1.2 z m 6.8,3.2 c 0,-0.9 0.7,-1.5 1.5,-1.5 0.8,0 1.5,0.6 1.5,1.5 0,0.8 -0.7,1.4 -1.5,1.4 -0.8,0 -1.5,-0.6 -1.5,-1.4 z m 7.2,4.1 c 0,-0.9 0.7,-1.6 1.6,-1.6 0.9,0 1.6,0.7 1.6,1.6 0,0.9 -0.7,1.6 -1.6,1.6 -0.9,0 -1.6,-0.7 -1.6,-1.6 z m 7.1,4.6 c 0,-0.9 0.7,-1.6 1.6,-1.6 0.9,0 1.6,0.7 1.6,1.6 0,0.9 -0.7,1.7 -1.6,1.7 -0.9,0 -1.6,-0.8 -1.6,-1.7 z m -32.5,-7.3 c 0,-0.7 0.5,-1.2 1.1,-1.2 0.7,0 1.2,0.5 1.2,1.2 0,0.6 -0.5,1.1 -1.2,1.1 -0.6,0 -1.1,-0.5 -1.1,-1.1 z m 22.3,11.6 c 0,-0.6 0.5,-1.1 1.1,-1.1 0.6,0 1.1,0.5 1.1,1.1 0,0.6 -0.5,1.1 -1.1,1.1 -0.6,0 -1.1,-0.5 -1.1,-1.1 z m 5.2,2.5 c 0,-0.6 0.4,-1.1 1.1,-1.1 0.6,0 1,0.5 1,1.1 0,0.6 -0.4,1.1 -1,1.1 -0.7,0 -1.1,-0.5 -1.1,-1.1 z m 6.1,3.7 c 0,-0.7 0.5,-1.2 1.1,-1.2 0.7,0 1.2,0.5 1.2,1.2 0,0.6 -0.5,1.2 -1.2,1.2 -0.6,0 -1.1,-0.6 -1.1,-1.2 z m 6.2,4 c 0,-0.6 0.5,-1.1 1.1,-1.1 0.6,0 1.1,0.5 1.1,1.1 0,0.6 -0.5,1.1 -1.1,1.1 -0.6,0 -1.1,-0.5 -1.1,-1.1 z m 7,4.4 c 0,-0.7 0.6,-1.3 1.4,-1.3 0.7,0 1.3,0.6 1.3,1.3 0,0.8 -0.6,1.3 -1.3,1.3 -0.8,0 -1.4,-0.5 -1.4,-1.3 z m 5.5,3.9 c 0,-0.6 0.5,-1.1 1.2,-1.1 0.6,0 1.1,0.5 1.1,1.1 0,0.7 -0.5,1.2 -1.1,1.2 -0.7,0 -1.2,-0.5 -1.2,-1.2 z m -56.4,-15.4 c 0,-0.7 0.5,-1.2 1.2,-1.2 0.7,0 1.2,0.5 1.2,1.2 0,0.7 -0.5,1.2 -1.2,1.2 -0.7,0 -1.2,-0.5 -1.2,-1.2 z m 14.1,14.7 c 0,-0.8 0.7,-1.5 1.6,-1.5 0.8,0 1.5,0.7 1.5,1.5 0,0.9 -0.7,1.5 -1.5,1.5 -0.9,0 -1.6,-0.6 -1.6,-1.5 z m 8.8,7.7 c 0,-0.8 0.6,-1.4 1.4,-1.4 0.8,0 1.4,0.6 1.4,1.4 0,0.8 -0.6,1.4 -1.4,1.4 -0.8,0 -1.4,-0.6 -1.4,-1.4 z m 5,3.8 c 0,-0.9 0.8,-1.7 1.7,-1.7 1,0 1.7,0.8 1.7,1.7 0,1 -0.7,1.7 -1.7,1.7 -0.9,0 -1.7,-0.7 -1.7,-1.7 z m -26,-7.4 c 0,-1 0.6,-1.7 1.4,-1.7 0.8,0 1.4,0.7 1.4,1.7 0,0.9 -0.6,1.7 -1.4,1.7 -0.8,0 -1.4,-0.8 -1.4,-1.7 z m 5.4,4.4 c 0,-0.7 0.6,-1.3 1.3,-1.3 0.7,0 1.2,0.6 1.2,1.3 0,0.6 -0.5,1.2 -1.2,1.2 -0.7,0 -1.3,-0.6 -1.3,-1.2 z m 5.2,3.8 c 0,-0.7 0.5,-1.2 1.2,-1.2 0.6,0 1.1,0.5 1.1,1.2 0,0.6 -0.5,1.2 -1.1,1.2 -0.7,0 -1.2,-0.6 -1.2,-1.2 z m 4.5,3.3 c 0,-0.6 0.6,-1.2 1.3,-1.2 0.7,0 1.2,0.6 1.2,1.2 0,0.7 -0.5,1.3 -1.2,1.3 -0.7,0 -1.3,-0.6 -1.3,-1.3 z m 5,3.2 c 0,-0.6 0.5,-1.1 1.1,-1.1 0.6,0 1.1,0.5 1.1,1.1 0,0.6 -0.5,1.1 -1.1,1.1 -0.6,0 -1.1,-0.5 -1.1,-1.1 z m 4.2,2.4 c 0,-0.7 0.6,-1.3 1.4,-1.3 0.7,0 1.3,0.6 1.3,1.3 0,0.7 -0.6,1.3 -1.3,1.3 -0.8,0 -1.4,-0.6 -1.4,-1.3 z m 5.5,2.3 c 0,-0.6 0.4,-1 1,-1 0.5,0 0.9,0.4 0.9,1 0,0.5 -0.4,0.9 -0.9,0.9 -0.6,0 -1,-0.4 -1,-0.9 z m -30,-10.9 c 0,-0.7 0.6,-1.3 1.3,-1.3 0.8,0 1.4,0.6 1.4,1.3 0,0.7 -0.6,1.3 -1.4,1.3 -0.7,0 -1.3,-0.6 -1.3,-1.3 z m 4.9,3.8 c 0,-0.7 0.5,-1.2 1.2,-1.2 0.7,0 1.3,0.5 1.3,1.2 0,0.7 -0.6,1.3 -1.3,1.3 -0.7,0 -1.2,-0.6 -1.2,-1.3 z m 5.3,3.3 c 0,-0.5 0.4,-0.9 0.9,-0.9 0.5,0 0.9,0.4 0.9,0.9 0,0.5 -0.4,0.9 -0.9,0.9 -0.5,0 -0.9,-0.4 -0.9,-0.9 z m 5.8,3.2 c 0,-0.5 0.4,-1 1,-1 0.5,0 1,0.5 1,1 0,0.6 -0.5,1 -1,1 -0.6,0 -1,-0.4 -1,-1 z m 5.9,3.5 c 0,-0.6 0.5,-1.1 1.1,-1.1 0.6,0 1.1,0.5 1.1,1.1 0,0.6 -0.5,1.1 -1.1,1.1 -0.6,0 -1.1,-0.5 -1.1,-1.1 z m 5.6,3.4 c 0,-0.7 0.6,-1.3 1.3,-1.3 0.8,0 1.4,0.6 1.4,1.3 0,0.7 -0.6,1.3 -1.4,1.3 -0.7,0 -1.3,-0.6 -1.3,-1.3 z m 7.5,1.9 c 0,-0.3 0.3,-0.6 0.6,-0.6 0.3,0 0.5,0.3 0.5,0.6 0,0.3 -0.2,0.5 -0.5,0.5 -0.3,0 -0.6,-0.2 -0.6,-0.5 z m 7.7,2.4 c 0,-0.4 1.1,-0.8 2.5,-0.8 1.3,0 2.5,0.4 2.5,0.8 0,0.4 -1.2,0.8 -2.5,0.8 -1.4,0 -2.5,-0.4 -2.5,-0.8 z m -36.7,3.3 c 0,-1 0.7,-1.8 1.7,-1.8 0.9,0 1.7,0.8 1.7,1.8 0,0.9 -0.8,1.7 -1.7,1.7 -1,0 -1.7,-0.8 -1.7,-1.7 z m 1.2,7.2 c 0,-1.1 0.8,-1.9 1.9,-1.9 1,0 1.9,0.8 1.9,1.9 0,1 -0.9,1.8 -1.9,1.8 -1.1,0 -1.9,-0.8 -1.9,-1.8 z m 2.2,6.4 c 0,-1.1 0.6,-1.9 1.3,-1.9 0.7,0 1.3,0.8 1.3,1.9 0,1 -0.6,1.8 -1.3,1.8 -0.7,0 -1.3,-0.8 -1.3,-1.8 z m 1.1,5.7 c 0,-0.8 0.5,-1.5 1.2,-1.5 0.6,0 1.1,0.7 1.1,1.5 0,0.9 -0.5,1.6 -1.1,1.6 -0.7,0 -1.2,-0.7 -1.2,-1.6 z m 0.5,7.2 c 0,-1.6 0.4,-2.9 0.9,-2.9 0.5,0 0.9,1.3 0.9,2.9 0,1.7 -0.4,3 -0.9,3 -0.5,0 -0.9,-1.3 -0.9,-3 z m 0.6,6.9 c 0,-0.9 0.3,-1.7 0.6,-1.7 0.3,0 0.6,0.8 0.6,1.7 0,1 -0.3,1.7 -0.6,1.7 -0.3,0 -0.6,-0.7 -0.6,-1.7 z m -0.8,18.4 c 0.2,-1.3 0.6,-2.3 0.8,-2.3 0.3,0.1 0.3,1.1 0.1,2.4 -0.2,1.3 -0.5,2.3 -0.8,2.3 -0.3,-0.1 -0.3,-1.2 -0.1,-2.4 z m -8,-20.4 c 0,-0.3 0.4,-0.5 0.8,-0.5 0.4,0 0.8,0.2 0.8,0.5 0,0.2 -0.4,0.4 -0.8,0.4 -0.4,0 -0.8,-0.2 -0.8,-0.4 z m -16.5,-17.2 c 0,-1.1 0.3,-1.9 0.7,-1.9 0.5,0 0.8,0.8 0.8,1.9 0,1 -0.3,1.9 -0.8,1.9 -0.4,0 -0.7,-0.9 -0.7,-1.9 z m 0.7,6.5 c 0,-1 0.4,-1.8 0.8,-1.8 0.5,0 0.8,0.8 0.8,1.8 0,1 -0.3,1.8 -0.8,1.8 -0.4,0 -0.8,-0.8 -0.8,-1.8 z m 1,5.3 c 0,-0.6 0.2,-1 0.5,-1 0.3,0 0.6,0.4 0.6,1 0,0.5 -0.3,1 -0.6,1 -0.3,0 -0.5,-0.5 -0.5,-1 z m 0.8,4.8 c 0,-0.5 0.2,-1 0.6,-1 0.3,0 0.6,0.5 0.6,1 0,0.6 -0.3,1 -0.6,1 -0.4,0 -0.6,-0.4 -0.6,-1 z m 1.5,6.4 c 0,-0.4 0.3,-0.8 0.7,-0.8 0.4,0 0.7,0.4 0.7,0.8 0,0.5 -0.3,0.9 -0.7,0.9 -0.4,0 -0.7,-0.4 -0.7,-0.9 z m 1.7,7.5 c 0,-0.6 0.2,-1.1 0.4,-1.1 0.3,0 0.4,0.5 0.4,1.1 0,0.7 -0.1,1.2 -0.4,1.2 -0.2,0 -0.4,-0.5 -0.4,-1.2 z m -18.7,-26.4 c 0,-1.1 0.4,-1.9 1,-1.9 0.6,0 1,0.8 1,1.9 0,1.1 -0.4,2 -1,2 -0.6,0 -1,-0.9 -1,-2 z m 1.2,6.3 c 0,-1 0.6,-1.8 1.2,-1.8 0.7,0 1.2,0.8 1.2,1.8 0,1 -0.5,1.8 -1.2,1.8 -0.6,0 -1.2,-0.8 -1.2,-1.8 z m 1.6,5.2 c 0,-0.9 0.5,-1.6 1,-1.6 0.6,0 1,0.7 1,1.6 0,0.9 -0.4,1.6 -1,1.6 -0.5,0 -1,-0.7 -1,-1.6 z m 1.7,5.5 c 0,-0.9 0.4,-1.6 1,-1.6 0.5,0 0.9,0.7 0.9,1.6 0,0.8 -0.4,1.5 -0.9,1.5 -0.6,0 -1,-0.7 -1,-1.5 z m 1.7,5.8 c 0,-0.6 0.5,-1.1 1.1,-1.1 0.5,0 1,0.5 1,1.1 0,0.7 -0.5,1.2 -1,1.2 -0.6,0 -1.1,-0.5 -1.1,-1.2 z m 2.4,5.7 c 0,-0.9 0.4,-1.5 1,-1.5 0.6,0 1,0.6 1,1.5 0,0.8 -0.4,1.4 -1,1.4 -0.6,0 -1,-0.6 -1,-1.4 z m 2.3,7.1 c 0,-0.8 0.5,-1.4 1,-1.4 0.6,0 1.1,0.6 1.1,1.4 0,0.9 -0.5,1.5 -1.1,1.5 -0.5,0 -1,-0.6 -1,-1.5 z m 2.5,6.3 c 0,-0.5 0.3,-0.9 0.7,-0.9 0.3,0 0.6,0.4 0.6,0.9 0,0.5 -0.3,0.9 -0.6,0.9 -0.4,0 -0.7,-0.4 -0.7,-0.9 z m -41.7,-46.6 c 0,-1 0.5,-1.8 1,-1.8 0.6,0 1,0.8 1,1.8 0,0.9 -0.4,1.7 -1,1.7 -0.5,0 -1,-0.8 -1,-1.7 z m -1.7,7.5 c 0.3,-0.9 1,-1.5 1.5,-1.4 0.5,0.2 0.8,1.1 0.5,2 -0.3,0.9 -1,1.5 -1.5,1.3 -0.5,-0.1 -0.7,-1 -0.5,-1.9 z m -3.3,6.7 c 0,-0.7 0.5,-1.3 1.1,-1.3 0.6,0 1.1,0.6 1.1,1.3 0,0.7 -0.5,1.2 -1.1,1.2 -0.6,0 -1.1,-0.5 -1.1,-1.2 z m -3.6,6.3 c 0,-0.8 0.5,-1.5 1.1,-1.5 0.6,0 1.1,0.7 1.1,1.5 0,0.8 -0.5,1.5 -1.1,1.5 -0.6,0 -1.1,-0.7 -1.1,-1.5 z m -3.1,4.9 c 0,-0.6 0.5,-1.1 1.2,-1.1 0.6,0 1.1,0.5 1.1,1.1 0,0.6 -0.5,1.1 -1.1,1.1 -0.7,0 -1.2,-0.5 -1.2,-1.1 z m -3.4,5.2 c 0,-0.6 0.5,-1.1 1.1,-1.1 0.7,0 1.2,0.5 1.2,1.1 0,0.6 -0.5,1.1 -1.2,1.1 -0.6,0 -1.1,-0.5 -1.1,-1.1 z m -3,4.6 c 0,-0.6 0.3,-1 0.6,-1 0.4,0 0.6,0.4 0.6,1 0,0.6 -0.2,1 -0.6,1 -0.3,0 -0.6,-0.4 -0.6,-1 z m -4.7,8 c 0,-0.8 0.3,-1.4 0.6,-1.4 0.4,0 0.7,0.6 0.7,1.4 0,0.7 -0.3,1.3 -0.7,1.3 -0.3,0 -0.6,-0.6 -0.6,-1.3 z m -10.9,-32.2 c 0,-0.8 0.3,-1.5 0.7,-1.5 0.5,0 0.8,0.7 0.8,1.5 0,0.8 -0.3,1.5 -0.8,1.5 -0.4,0 -0.7,-0.7 -0.7,-1.5 z m -0.2,-4.9 c 0,-0.7 0.3,-1.3 0.7,-1.3 0.4,0 0.7,0.6 0.7,1.3 0,0.6 -0.3,1.2 -0.7,1.2 -0.4,0 -0.7,-0.6 -0.7,-1.2 z m 0.3,-5 c 0,-0.7 0.4,-1.1 0.8,-1.1 0.4,0 0.8,0.4 0.8,1.1 0,0.6 -0.4,1 -0.8,1 -0.4,0 -0.8,-0.4 -0.8,-1 z m 0.8,-4 c 0,-0.9 0.5,-1.5 1.1,-1.5 0.6,0 1.1,0.6 1.1,1.5 0,0.8 -0.5,1.5 -1.1,1.5 -0.6,0 -1.1,-0.7 -1.1,-1.5 z m -21.6,-35.3 c 0,-0.6 0.6,-1.1 1.2,-1.1 0.7,0 1.2,0.5 1.2,1.1 0,0.5 -0.5,1 -1.2,1 -0.6,0 -1.2,-0.5 -1.2,-1 z m -5.3,3.5 c 0,-0.7 0.4,-1.3 0.9,-1.3 0.5,0 0.8,0.6 0.8,1.3 0,0.7 -0.3,1.2 -0.8,1.2 -0.5,0 -0.9,-0.5 -0.9,-1.2 z m -4.2,3.3 c 0,-0.4 0.3,-0.7 0.6,-0.7 0.4,0 0.7,0.3 0.7,0.7 0,0.4 -0.3,0.7 -0.7,0.7 -0.3,0 -0.6,-0.3 -0.6,-0.7 z m -4.1,2.4 c 0,-0.3 0.3,-0.6 0.7,-0.6 0.3,0 0.6,0.3 0.6,0.6 0,0.3 -0.3,0.5 -0.6,0.5 -0.4,0 -0.7,-0.2 -0.7,-0.5 z m -30.7,16.2 c 0,-0.4 0.3,-0.8 0.8,-0.8 0.5,0 0.9,0.4 0.9,0.8 0,0.5 -0.4,0.9 -0.9,0.9 -0.5,0 -0.8,-0.4 -0.8,-0.9 z m -5.5,2.8 c 0,-0.4 0.4,-0.8 0.9,-0.8 0.4,0 0.8,0.4 0.8,0.8 0,0.5 -0.4,0.9 -0.8,0.9 -0.5,0 -0.9,-0.4 -0.9,-0.9 z m -3.8,2.9 c 0,-0.4 0.3,-0.8 0.6,-0.8 0.3,0 0.5,0.4 0.5,0.8 0,0.5 -0.2,0.8 -0.5,0.8 -0.3,0 -0.6,-0.3 -0.6,-0.8 z m -14.6,-9.7 c 0,-0.7 0.2,-1.2 0.5,-1.2 0.3,0 0.6,0.5 0.6,1.2 0,0.6 -0.3,1.1 -0.6,1.1 -0.3,0 -0.5,-0.5 -0.5,-1.1 z m 2.1,-5.4 c 0,-0.5 0.3,-0.8 0.6,-0.8 0.3,0 0.5,0.3 0.5,0.8 0,0.4 -0.2,0.8 -0.5,0.8 -0.3,0 -0.6,-0.4 -0.6,-0.8 z m 3.8,-5.3 c 0,-0.5 0.3,-1 0.8,-1 0.4,0 0.8,0.5 0.8,1 0,0.6 -0.4,1.1 -0.8,1.1 -0.5,0 -0.8,-0.5 -0.8,-1.1 z m 15.5,-29.1 c 0,-0.4 0.3,-0.8 0.8,-0.8 0.5,0 0.9,0.4 0.9,0.8 0,0.4 -0.4,0.8 -0.9,0.8 -0.5,0 -0.8,-0.4 -0.8,-0.8 z m -3.9,15.5 c 0,-0.6 0.4,-1.1 0.9,-1.1 0.5,0 0.9,0.5 0.9,1.1 0,0.6 -0.4,1.1 -0.9,1.1 -0.5,0 -0.9,-0.5 -0.9,-1.1 z m 4,-2.8 c 0,-0.5 0.4,-1 1,-1 0.5,0 0.9,0.5 0.9,1 0,0.6 -0.4,1 -0.9,1 -0.6,0 -1,-0.4 -1,-1 z m 4.9,-4.5 c 0,-0.6 0.5,-1 1.1,-1 0.6,0 1.1,0.4 1.1,1 0,0.6 -0.5,1 -1.1,1 -0.6,0 -1.1,-0.4 -1.1,-1 z m 4.8,-4.1 c 0,-0.6 0.5,-1.1 1.2,-1.1 0.6,0 1.2,0.5 1.2,1.1 0,0.7 -0.6,1.2 -1.2,1.2 -0.7,0 -1.2,-0.5 -1.2,-1.2 z m 5.8,-3.9 c 0,-0.7 0.5,-1.3 1.2,-1.3 0.6,0 1.1,0.6 1.1,1.3 0,0.6 -0.5,1.2 -1.1,1.2 -0.7,0 -1.2,-0.6 -1.2,-1.2 z m 5.5,-4.4 c 0,-0.8 0.6,-1.4 1.4,-1.4 0.7,0 1.4,0.6 1.4,1.4 0,0.8 -0.7,1.4 -1.4,1.4 -0.8,0 -1.4,-0.6 -1.4,-1.4 z m -59.6,-33.4 c 0,-0.6 0.6,-1.2 1.2,-1.2 0.6,0 1.2,0.6 1.2,1.2 0,0.7 -0.6,1.2 -1.2,1.2 -0.6,0 -1.2,-0.5 -1.2,-1.2 z m -4.8,0.7 c 0,-0.6 0.5,-1.1 1.1,-1.1 0.6,0 1.1,0.5 1.1,1.1 0,0.6 -0.5,1.1 -1.1,1.1 -0.6,0 -1.1,-0.5 -1.1,-1.1 z m -5,-0.3 c 0,-0.5 0.4,-0.9 0.9,-0.9 0.5,0 1,0.4 1,0.9 0,0.5 -0.5,0.9 -1,0.9 -0.5,0 -0.9,-0.4 -0.9,-0.9 z m -5.5,-0.1 c 0,-0.4 0.3,-0.7 0.7,-0.7 0.4,0 0.7,0.3 0.7,0.7 0,0.4 -0.3,0.7 -0.7,0.7 -0.4,0 -0.7,-0.3 -0.7,-0.7 z m 14.5,-7.5 c 0,-0.8 0.7,-1.5 1.5,-1.5 0.7,0 1.4,0.7 1.4,1.5 0,0.7 -0.7,1.4 -1.4,1.4 -0.8,0 -1.5,-0.7 -1.5,-1.4 z m -8.2,0.7 c 0,-0.5 0.8,-0.9 1.9,-0.9 1.1,0 2,0.4 2,0.9 0,0.6 -0.9,1 -2,1 -1.1,0 -1.9,-0.4 -1.9,-1 z m -8.5,0.3 c 0,-0.6 1,-1 2.3,-1 1.2,0 2.3,0.4 2.3,1 0,0.5 -1.1,1 -2.3,1 -1.3,0 -2.3,-0.5 -2.3,-1 z m -8.4,-1 c 0,-0.5 1,-1 2.3,-1 1.3,0 2.4,0.5 2.4,1 0,0.6 -1.1,1 -2.4,1 -1.3,0 -2.3,-0.4 -2.3,-1 z m -7.4,0 c 0,-0.6 1.1,-1.1 2.4,-1.1 1.3,0 2.3,0.5 2.3,1.1 0,0.7 -1,1.2 -2.3,1.2 -1.3,0 -2.4,-0.5 -2.4,-1.2 z m -1.4,-8.1 c 0,-0.6 0.5,-1 1.1,-1 0.5,0 1,0.4 1,1 0,0.6 -0.5,1 -1,1 -0.6,0 -1.1,-0.4 -1.1,-1 z m 7.2,-0.1 c 0,-0.6 0.5,-1.1 1.1,-1.1 0.6,0 1.1,0.5 1.1,1.1 0,0.6 -0.5,1.1 -1.1,1.1 -0.6,0 -1.1,-0.5 -1.1,-1.1 z m 6.6,0.3 c 0,-0.3 1,-0.6 2.2,-0.6 1.2,0 2.2,0.3 2.2,0.6 0,0.4 -1,0.7 -2.2,0.7 -1.2,0 -2.2,-0.3 -2.2,-0.7 z m 8.1,-0.4 c 0,-0.5 0.4,-0.8 0.9,-0.8 0.4,0 0.8,0.3 0.8,0.8 0,0.4 -0.4,0.8 -0.8,0.8 -0.5,0 -0.9,-0.4 -0.9,-0.8 z m 6.7,0 c 0,-0.6 0.7,-1.1 1.4,-1.1 0.8,0 1.4,0.5 1.4,1.1 0,0.6 -0.6,1.1 -1.4,1.1 -0.7,0 -1.4,-0.5 -1.4,-1.1 z m 6.4,-0.3 c 0,-0.6 0.5,-1.1 1.1,-1.1 0.6,0 1.1,0.5 1.1,1.1 0,0.7 -0.5,1.2 -1.1,1.2 -0.6,0 -1.1,-0.5 -1.1,-1.2 z m -28.2,-15.1 c 0,-0.6 0.4,-1 1,-1 0.5,0 1,0.4 1,1 0,0.5 -0.5,1 -1,1 -0.6,0 -1,-0.5 -1,-1 z m -8,0.7 c 0,-0.6 0.8,-1.1 1.7,-1.1 1,0 1.7,0.5 1.7,1.1 0,0.6 -0.7,1.1 -1.7,1.1 -0.9,0 -1.7,-0.5 -1.7,-1.1 z m -5.2,0.6 c 0,-0.6 0.5,-1.1 1,-1.1 0.6,0 1.1,0.5 1.1,1.1 0,0.6 -0.5,1.1 -1.1,1.1 -0.5,0 -1,-0.5 -1,-1.1 z m 319.6,-10.3 c 2.2,0.2 7,1.2 10.3,2.3 3.3,1.1 7,1.3 10.8,1.8 3.7,0.4 5.9,0.4 5.7,-1.3 -0.1,-1.7 -1.5,-0.9 -5.7,-1.6 -4.3,-0.6 -2.9,0.2 -11.3,-2.5 -8.4,-2.6 -14.3,-2.3 -14.3,-2.3 l 0,3.8 c 0,0 2.3,-0.4 4.5,-0.2 z"
         id="path2999"
         style="fill:#b7b6b6;fill-opacity:1;fill-rule:evenodd;stroke:none" />
      <path
         d="m 310.4,561.1 -84.9,0 0,-97.6 84.6,0 0.1,-84.7 97.5,0 0.1,84.7 84.8,0 0,97.6 -84.8,-0.1 0,85.8 -97.6,0 c 0,0 0.2,-85.7 0.2,-85.7 z"
         id="path3019"
         style="fill:#e20a16;fill-opacity:1;fill-rule:evenodd;stroke:none" />
    </g>
  </g>
</svg>
